<svg width="415" height="464" viewBox="0 0 415 464" fill="none" xmlns="http://www.w3.org/2000/svg">
<path d="M174.825 271.218H246.355C262.815 271.218 276.159 257.874 276.159 241.414V166.903C276.159 150.443 262.815 137.099 246.355 137.099H162.903C146.443 137.099 133.099 150.443 133.099 166.903V357.65" stroke="#989898" stroke-width="29.8042"/>
<path fill-rule="evenodd" clip-rule="evenodd" d="M118.197 166.903C118.197 142.213 138.213 122.197 162.904 122.197H246.355C271.046 122.197 291.062 142.213 291.062 166.903V241.414C291.062 266.104 271.046 286.12 246.355 286.12H174.825V256.316H246.355C254.585 256.316 261.257 249.644 261.257 241.414V166.903C261.257 158.673 254.585 152.001 246.355 152.001H162.904C154.673 152.001 148.001 158.673 148.001 166.903V357.65H118.197V166.903Z" fill="#989898"/>
<path fill-rule="evenodd" clip-rule="evenodd" d="M307.683 71.7712C292.808 73.3148 281.441 75.075 275.5 76.8572C262.978 80.6137 253.728 86.6009 246.934 94.8103C240.064 103.111 234.933 114.624 232.27 130.603C229.951 144.518 227.09 181.078 223.858 222.383C223.131 231.679 222.385 241.216 221.622 250.789C219.572 276.503 217.417 302.181 215.208 323.335C213.065 343.856 210.723 361.795 208.001 370.868C203.447 386.048 198.256 399.884 188.58 411.012C178.555 422.541 165.098 429.67 146.981 434.611C137.344 437.239 123.095 438.993 108.125 440.253C92.839 441.538 75.7148 442.387 59.7615 442.95C43.7847 443.514 28.8591 443.796 17.9347 443.936C12.4692 444.007 7.99743 444.042 4.88694 444.059C3.33153 444.068 2.11602 444.073 1.28633 444.075L0.336738 444.077L0.00740461 444.077C0.00597371 444.077 0 444.077 0 429.175L7.86797e-05 414.273L0.297947 414.273L1.20657 414.271C2.00825 414.269 3.19396 414.264 4.71792 414.256C7.76619 414.238 12.1658 414.204 17.5509 414.134C28.3277 413.996 43.02 413.718 58.7102 413.165C74.4238 412.61 91.0156 411.782 105.627 410.553C120.554 409.298 132.384 407.699 139.139 405.857C153.806 401.857 161.213 397.064 166.09 391.455C171.316 385.445 175.066 376.928 179.454 362.304C181.202 356.476 183.331 341.629 185.565 320.239C187.733 299.48 189.863 274.119 191.912 248.421C192.642 239.261 193.364 230.018 194.075 220.91C197.304 179.586 200.315 141.041 202.871 125.703C206.169 105.917 212.96 89.1154 223.973 75.8082C235.061 62.4095 249.654 53.4947 266.936 48.3099C275.898 45.6215 289.864 43.6561 304.607 42.1262C319.733 40.5565 336.934 39.3303 353.06 38.3928C369.21 37.4538 384.404 36.7974 395.553 36.3758C401.131 36.1649 405.704 36.0125 408.886 35.9126C410.478 35.8627 411.722 35.8259 412.572 35.8016L413.879 35.7651C413.88 35.7651 413.886 35.7649 414.278 50.6619L414.67 65.5588L413.426 65.5935C412.602 65.6172 411.384 65.6531 409.821 65.7022C406.693 65.8003 402.185 65.9505 396.679 66.1587C385.662 66.5754 370.679 67.2229 354.79 68.1467C338.876 69.0719 322.175 70.2673 307.683 71.7712Z" fill="#C6CDD1"/>
<path fill-rule="evenodd" clip-rule="evenodd" d="M35.1862 110.466C58.6336 158.991 99.3322 219.252 151.793 279.601C191.593 325.386 232.284 364.459 269.165 393.74C273.36 390.066 278.854 387.839 284.868 387.839C298.037 387.839 308.712 398.514 308.712 411.682C308.712 415.02 308.026 418.198 306.787 421.082C327.688 434.737 346.207 444.004 361.286 448.404C377.567 453.154 388.088 451.771 393.941 446.682C399.794 441.594 402.629 431.369 400.19 414.585C397.798 398.121 390.537 377.076 378.794 352.773C367.576 329.559 352.411 303.658 333.898 276.347C331.409 272.675 334.022 267.681 338.458 267.681C338.478 267.681 338.497 267.681 338.516 267.681C340.759 267.678 342.679 268.052 343.936 269.908C362.662 297.556 378.068 323.87 389.528 347.586C401.521 372.407 409.348 394.698 411.988 412.871C414.582 430.725 412.394 446.438 401.762 455.68C391.131 464.922 375.266 464.902 357.947 459.848C341.102 454.933 321.191 444.805 299.465 430.537C295.432 433.664 290.367 435.526 284.868 435.526C271.7 435.526 261.025 424.851 261.025 411.682C261.025 408.849 261.519 406.132 262.426 403.611C224.656 373.707 183.192 333.893 142.796 287.423C89.8466 226.512 48.4776 165.375 24.452 115.653C12.4585 90.832 4.63212 68.5411 1.99174 50.3681C-0.6023 32.5142 1.58594 16.8009 12.2172 7.55926C22.8485 -1.68234 38.7133 -1.66242 56.0326 3.39114C73.6612 8.53502 94.646 19.3875 117.556 34.7187C137.353 47.9661 158.803 64.7047 181.047 84.3464C183.9 86.8657 183.407 91.4446 180.268 93.5974C178.062 95.1102 175.1 94.9991 173.095 93.2289C151.235 73.9297 130.224 57.5408 110.926 44.6266C88.4942 29.6156 68.6646 19.4959 52.6932 14.8356C36.4124 10.085 25.8917 11.4687 20.0386 16.5567C14.1854 21.6448 11.351 31.8706 13.7895 48.654C16.1817 65.1186 23.4432 86.1636 35.1862 110.466Z" fill="#2C97AE"/>
<rect x="174.825" y="256.316" width="71.53" height="29.8042" fill="#989898"/>
</svg>
